<?xml version="1.0" encoding="UTF-8" standalone="no"?>
<svg width="157px" height="157px" viewBox="0 0 157 157" version="1.1" xmlns="http://www.w3.org/2000/svg" xmlns:xlink="http://www.w3.org/1999/xlink">
    <!-- Generator: Sketch 3.8.3 (29802) - http://www.bohemiancoding.com/sketch -->
    <title>Group 5</title>
    <desc>Created with Sketch.</desc>
    <defs></defs>
    <g id="Page-1" stroke="none" stroke-width="1" fill="none" fill-rule="evenodd">
        <g id="Group-5" transform="translate(-25.000000, -25.000000)">
            <g id="Group-4" stroke-width="0.3" stroke="#FFFFFF">
                <g>
                    <path d="M0,55 L207.538551,55" id="Path-1"></path>
                    <path d="M0,152 L207.538551,152" id="Path-1-Copy"></path>
                    <path d="M0,132 L207.538551,132" id="Path-1-Copy-5"></path>
                    <path d="M0,55 L207.538551,55" id="Path-1"></path>
                    <path d="M157,207.538551 L157,0" id="Path-1-Copy"></path>
                    <path d="M50,207.538551 L50,0" id="Path-1-Copy-2"></path>
                    <path d="M70,207.538551 L70,0" id="Path-1-Copy-3"></path>
                    <path d="M137,207.538551 L137,0" id="Path-1-Copy-4"></path>
                    <path d="M131.5,207.538551 L132,0" id="Path-1-Copy-4"></path>
                    <path d="M75,207.538551 L75,0" id="Path-1-Copy-3"></path>
                </g>
            </g>
            <g id="Group" transform="translate(50.000000, 55.000000)">
                <rect id="Rectangle-1-Copy" fill="#FFCA0A" x="0" y="0" width="20" height="4.5"></rect>
                <rect id="Rectangle-1-Copy-4" fill="#22890A" x="0" y="4.5" width="20" height="0.5"></rect>
                <rect id="Rectangle-1-Copy-4" fill="#33B813" x="0" y="5" width="20" height="10.5"></rect>
                <rect id="Rectangle-1-Copy-4" fill="#3CDE15" x="0" y="15.5" width="20" height="8"></rect>
                <rect id="Rectangle-1-Copy-4" fill="#4DF425" x="0" y="23.5" width="20" height="2.5"></rect>
                <rect id="Rectangle-1-Copy-5" fill="#0C55B0" x="0" y="26" width="20" height="12.5"></rect>
                <rect id="Rectangle-1-Copy-6" fill="#186EDA" x="0" y="38.5" width="20" height="8"></rect>
                <rect id="Rectangle-1-Copy-7" fill="#2D81EA" x="0" y="46.5" width="20" height="13.5"></rect>
                <rect id="Rectangle-1-Copy-8" fill="#4E9BFB" x="0" y="60" width="20" height="0.5"></rect>
                <rect id="Rectangle-1-Copy-9" fill="#853709" x="0" y="60.5" width="20" height="2"></rect>
                <rect id="Rectangle-1-Copy-10" fill="#D45E19" x="0" y="62.5" width="20" height="19.5"></rect>
                <rect id="Rectangle-1-Copy-11" fill="#E78B56" x="0" y="82" width="20" height="1.5"></rect>
                <rect id="Rectangle-1-Copy-12" fill="#830A90" x="0" y="83.5" width="20" height="5.5"></rect>
                <rect id="Rectangle-1-Copy-13" fill="#AE0CBF" x="0" y="89" width="20" height="1"></rect>
                <rect id="Rectangle-1-Copy-14" fill="#868008" x="0" y="90" width="20" height="4.5"></rect>
                <rect id="Rectangle-1-Copy-15" fill="#D5CD25" x="0" y="94.5" width="20" height="1"></rect>
                <rect id="Rectangle-1-Copy-16" fill="#A3A3A3" x="0" y="95.5" width="20" height="1.5"></rect>
            </g>
            <g id="Group-3" transform="translate(137.000000, 55.000000)">
                <rect id="Rectangle-1-Copy-2" fill="#5FA0D6" x="0" y="0" width="20" height="17.6363636"></rect>
                <rect id="Rectangle-1-Copy-21" fill="#7171D9" x="0" y="17.6363636" width="20" height="27.4343434"></rect>
                <rect id="Rectangle-1-Copy-22" fill="#FFCC00" x="0" y="45.0707071" width="20" height="20.5757576"></rect>
                <rect id="Rectangle-1-Copy-23" fill="#DE721E" x="0" y="65.6464646" width="20" height="23.5151515"></rect>
                <rect id="Rectangle-1-Copy-24" fill="#E28A45" x="0" y="89.1616162" width="20" height="2.93939394"></rect>
                <rect id="Rectangle-1-Copy-25" fill="#E8A46F" x="0" y="92.1010101" width="20" height="4.8989899"></rect>
            </g>
            <g id="Group-2" transform="translate(75.000000, 132.000000)">
                <rect id="Rectangle-1-Copy-3" fill="#0CD381" x="0" y="0" width="22.009901" height="20"></rect>
                <rect id="Rectangle-1-Copy-17" fill="#85A2C7" x="22.009901" y="0" width="9.02970297" height="20"></rect>
                <rect id="Rectangle-1-Copy-18" fill="#FFCC00" x="31.039604" y="0" width="8.46534653" height="20"></rect>
                <rect id="Rectangle-1-Copy-19" fill="#0C55B0" x="39.5049505" y="0" width="15.8019802" height="20"></rect>
                <rect id="Rectangle-1-Copy-20" fill="#853709" x="55.3069307" y="0" width="1.41089109" height="20"></rect>
            </g>
        </g>
    </g>
</svg>