<?xml version="1.0" encoding="UTF-8" standalone="no"?>
<svg width="410px" height="389px" viewBox="0 0 410 389" version="1.1" xmlns="http://www.w3.org/2000/svg" xmlns:xlink="http://www.w3.org/1999/xlink">
    <!-- Generator: Sketch 3.8.3 (29802) - http://www.bohemiancoding.com/sketch -->
    <title>Icon</title>
    <desc>Created with Sketch.</desc>
    <defs></defs>
    <g id="Page-1" stroke="none" stroke-width="1" fill="none" fill-rule="evenodd">
        <g id="A4" transform="translate(-80.000000, -114.000000)">
            <g id="Icon" transform="translate(77.000000, 111.000000)">
                <g id="Group-4" transform="translate(21.000000, 21.000000)" stroke="#444444">
                    <g>
                        <path d="M0.229614512,291.5 L374.652258,291.5" id="Path-1-Copy"></path>
                        <path d="M0.229614512,243.5 L374.652258,243.5" id="Path-1-Copy-5"></path>
                        <path d="M0.229614512,59 L374.652258,59" id="Path-1"></path>
                        <path d="M316,354.54468 L316,0.337192339" id="Path-1-Copy"></path>
                        <path d="M57,354.54468 L57,0.337192339" id="Path-1-Copy-2"></path>
                        <path d="M105,354.54468 L105,0.337192339" id="Path-1-Copy-3"></path>
                        <path d="M267,354.54468 L267,0.337192339" id="Path-1-Copy-4"></path>
                        <path d="M254.634615,354.54468 L255.846154,0.337192339" id="Path-1-Copy-4"></path>
                        <path d="M117,354.54468 L117,0.337192339" id="Path-1-Copy-3"></path>
                    </g>
                </g>
                <g id="Group" transform="translate(78.153846, 80.269231)">
                    <rect id="Rectangle-1-Copy" fill="#FFCA0A" x="0" y="0" width="48.4615385" height="10.9038462"></rect>
                    <rect id="Rectangle-1-Copy-4" fill="#22890A" x="0" y="10.9038462" width="48.4615385" height="1.21153846"></rect>
                    <rect id="Rectangle-1-Copy-4" fill="#33B813" x="0" y="12.1153846" width="48.4615385" height="25.4423077"></rect>
                    <rect id="Rectangle-1-Copy-4" fill="#3CDE15" x="0" y="37.5576923" width="48.4615385" height="19.3846154"></rect>
                    <rect id="Rectangle-1-Copy-4" fill="#4DF425" x="0" y="56.9423077" width="48.4615385" height="6.05769231"></rect>
                    <rect id="Rectangle-1-Copy-5" fill="#0C55B0" x="0" y="63" width="48.4615385" height="30.2884615"></rect>
                    <rect id="Rectangle-1-Copy-6" fill="#186EDA" x="0" y="93.2884615" width="48.4615385" height="19.3846154"></rect>
                    <rect id="Rectangle-1-Copy-7" fill="#2D81EA" x="0" y="112.673077" width="48.4615385" height="32.7115385"></rect>
                    <rect id="Rectangle-1-Copy-8" fill="#4E9BFB" x="0" y="145.384615" width="48.4615385" height="1.21153846"></rect>
                    <rect id="Rectangle-1-Copy-9" fill="#853709" x="0" y="146.596154" width="48.4615385" height="4.84615385"></rect>
                    <rect id="Rectangle-1-Copy-10" fill="#D45E19" x="0" y="151.442308" width="48.4615385" height="47.25"></rect>
                    <rect id="Rectangle-1-Copy-11" fill="#E78B56" x="0" y="198.692308" width="48.4615385" height="3.63461538"></rect>
                    <rect id="Rectangle-1-Copy-12" fill="#830A90" x="0" y="202.326923" width="48.4615385" height="13.3269231"></rect>
                    <rect id="Rectangle-1-Copy-13" fill="#AE0CBF" x="0" y="215.653846" width="48.4615385" height="2.42307692"></rect>
                    <rect id="Rectangle-1-Copy-14" fill="#868008" x="0" y="218.076923" width="48.4615385" height="10.9038462"></rect>
                    <rect id="Rectangle-1-Copy-15" fill="#D5CD25" x="0" y="228.980769" width="48.4615385" height="2.42307692"></rect>
                    <rect id="Rectangle-1-Copy-16" fill="#A3A3A3" x="0" y="231.403846" width="48.4615385" height="3.63461538"></rect>
                </g>
                <g id="Group-3" transform="translate(288.961538, 80.269231)">
                    <rect id="Rectangle-1-Copy-2" fill="#5FA0D6" x="0" y="0" width="48.4615385" height="42.7342657"></rect>
                    <rect id="Rectangle-1-Copy-21" fill="#7171D9" x="0" y="42.7342657" width="48.4615385" height="66.4755245"></rect>
                    <rect id="Rectangle-1-Copy-22" fill="#FFCC00" x="0" y="109.20979" width="48.4615385" height="49.8566434"></rect>
                    <rect id="Rectangle-1-Copy-23" fill="#DE721E" x="0" y="159.066434" width="48.4615385" height="56.979021"></rect>
                    <rect id="Rectangle-1-Copy-24" fill="#E28A45" x="0" y="216.045455" width="48.4615385" height="7.12237762"></rect>
                    <rect id="Rectangle-1-Copy-25" fill="#E8A46F" x="0" y="223.167832" width="48.4615385" height="11.8706294"></rect>
                </g>
                <g id="Group-2" transform="translate(138.730769, 266.846154)">
                    <rect id="Rectangle-1-Copy-3" fill="#0CD381" x="0" y="0" width="53.3316832" height="48.4615385"></rect>
                    <rect id="Rectangle-1-Copy-17" fill="#85A2C7" x="53.3316832" y="0" width="21.8796649" height="48.4615385"></rect>
                    <rect id="Rectangle-1-Copy-18" fill="#FFCC00" x="75.2113481" y="0" width="20.5121858" height="48.4615385"></rect>
                    <rect id="Rectangle-1-Copy-19" fill="#0C55B0" x="95.7235339" y="0" width="38.2894136" height="48.4615385"></rect>
                    <rect id="Rectangle-1-Copy-20" fill="#853709" x="134.012947" y="0" width="3.41869764" height="48.4615385"></rect>
                </g>
                <g id="Group-5" transform="translate(78.000000, 381.000000)" font-size="10" font-family="CircularStd-Book, Circular Std" fill="#444444" font-weight="300">
                    <text id="20%">
                        <tspan x="14.3" y="10">20%</tspan>
                    </text>
                    <text id="20%">
                        <tspan x="225.3" y="10">20%</tspan>
                    </text>
                    <text id="5%">
                        <tspan x="47.725" y="10">5%</tspan>
                    </text>
                    <text id="5%">
                        <tspan x="200.225" y="10">5%</tspan>
                    </text>
                    <text id="50%">
                        <tspan x="119.705" y="10">50%</tspan>
                    </text>
                </g>
                <g id="Group-5" transform="translate(78.000000, 0.000000)" font-size="10" font-family="CircularStd-Book, Circular Std" fill="#444444" font-weight="300">
                    <text id="20%">
                        <tspan x="14.3" y="10">20%</tspan>
                    </text>
                    <text id="20%">
                        <tspan x="225.3" y="10">20%</tspan>
                    </text>
                    <text id="5%">
                        <tspan x="47.725" y="10">5%</tspan>
                    </text>
                    <text id="5%">
                        <tspan x="200.225" y="10">5%</tspan>
                    </text>
                    <text id="50%">
                        <tspan x="119.705" y="10">50%</tspan>
                    </text>
                </g>
                <text id="80%" transform="translate(6.500000, 172.500000) rotate(-90.000000) translate(-6.500000, -172.500000) " font-family="CircularStd-Book, Circular Std" font-size="10" font-weight="300" fill="#444444">
                    <tspan x="-3.33" y="176">80%</tspan>
                </text>
                <text id="20%" transform="translate(6.500000, 291.000000) rotate(-90.000000) translate(-6.500000, -291.000000) " font-family="CircularStd-Book, Circular Std" font-size="10" font-weight="300" fill="#444444">
                    <tspan x="-3.2" y="294.5">20%</tspan>
                </text>
                <text id="80%" transform="translate(408.500000, 172.500000) rotate(-90.000000) translate(-408.500000, -172.500000) " font-family="CircularStd-Book, Circular Std" font-size="10" font-weight="300" fill="#444444">
                    <tspan x="398.67" y="176">80%</tspan>
                </text>
                <text id="20%" transform="translate(408.500000, 291.000000) rotate(-90.000000) translate(-408.500000, -291.000000) " font-family="CircularStd-Book, Circular Std" font-size="10" font-weight="300" fill="#444444">
                    <tspan x="398.8" y="294.5">20%</tspan>
                </text>
            </g>
        </g>
    </g>
</svg>